<mxfile>
    <diagram id="xpecqGnWRZujgkgLN5ou" name="第 1 页">
        <mxGraphModel dx="796" dy="576" grid="1" gridSize="10" guides="1" tooltips="1" connect="1" arrows="1" fold="1" page="1" pageScale="1" pageWidth="1169" pageHeight="827" background="#ffffff" math="0" shadow="0">
            <root>
                <mxCell id="0"/>
                <mxCell id="1" parent="0"/>
                <mxCell id="25" value="1" style="edgeStyle=none;rounded=0;orthogonalLoop=1;jettySize=auto;html=1;exitX=1;exitY=1;exitDx=0;exitDy=0;fontSize=18;" edge="1" parent="1" source="21">
                    <mxGeometry relative="1" as="geometry">
                        <mxPoint x="548" y="490" as="targetPoint"/>
                    </mxGeometry>
                </mxCell>
                <mxCell id="26" value="1" style="edgeStyle=none;rounded=0;orthogonalLoop=1;jettySize=auto;html=1;exitX=1;exitY=0;exitDx=0;exitDy=0;entryX=0.077;entryY=0.782;entryDx=0;entryDy=0;entryPerimeter=0;fontSize=18;" edge="1" parent="1" source="21" target="23">
                    <mxGeometry relative="1" as="geometry"/>
                </mxCell>
                <mxCell id="21" value="1" style="ellipse;whiteSpace=wrap;html=1;fontSize=18;strokeWidth=3;" vertex="1" parent="1">
                    <mxGeometry x="290" y="333" width="80" height="80" as="geometry"/>
                </mxCell>
                <mxCell id="22" value="4" style="ellipse;whiteSpace=wrap;html=1;fontSize=18;strokeWidth=3;" vertex="1" parent="1">
                    <mxGeometry x="710" y="333" width="80" height="80" as="geometry"/>
                </mxCell>
                <mxCell id="27" value="1" style="edgeStyle=none;rounded=0;orthogonalLoop=1;jettySize=auto;html=1;exitX=1;exitY=0.5;exitDx=0;exitDy=0;entryX=0;entryY=0;entryDx=0;entryDy=0;fontSize=18;" edge="1" parent="1" source="23" target="22">
                    <mxGeometry relative="1" as="geometry"/>
                </mxCell>
                <mxCell id="29" value="1" style="edgeStyle=none;rounded=0;orthogonalLoop=1;jettySize=auto;html=1;fontSize=18;entryX=0.406;entryY=0.02;entryDx=0;entryDy=0;entryPerimeter=0;" edge="1" parent="1" target="24">
                    <mxGeometry relative="1" as="geometry">
                        <mxPoint x="522" y="280" as="sourcePoint"/>
                        <mxPoint x="577" y="457" as="targetPoint"/>
                    </mxGeometry>
                </mxCell>
                <mxCell id="23" value="3" style="ellipse;whiteSpace=wrap;html=1;fontSize=18;strokeWidth=1;" vertex="1" parent="1">
                    <mxGeometry x="470" y="200" width="80" height="80" as="geometry"/>
                </mxCell>
                <mxCell id="28" value="1" style="edgeStyle=none;rounded=0;orthogonalLoop=1;jettySize=auto;html=1;exitX=1;exitY=0.5;exitDx=0;exitDy=0;fontSize=18;" edge="1" parent="1" source="24" target="22">
                    <mxGeometry relative="1" as="geometry"/>
                </mxCell>
                <mxCell id="24" value="2" style="ellipse;whiteSpace=wrap;html=1;fontSize=18;strokeWidth=1;" vertex="1" parent="1">
                    <mxGeometry x="545" y="460" width="80" height="80" as="geometry"/>
                </mxCell>
            </root>
        </mxGraphModel>
    </diagram>
</mxfile>